<?xml version="1.0"?>
<svg xmlns="http://www.w3.org/2000/svg" viewBox="0 0 160 600" width="160" height="600">
  <g fill="none" stroke="#c2912f" stroke-linecap="round" stroke-linejoin="round">

    
    
    <rect x="20" y="38" width="120" height="12" rx="2" fill="#c2912f" fill-opacity="0.05" stroke-width="1.2"></rect>
    <path d="M14 54 H146" stroke-width="0.8"></path>
    <path d="M16 54 C16 50 18 50 20 50 M144 54 C144 50 142 50 140 50" stroke-width="0.7" opacity=".7"></path>

    
    <path d="M80 58 C56 57 43 67 40 82 C38 93 48 100 57 94 C64 89 60 79 53 82 C49 83 49 89 53 90" stroke-width="1.1"></path>
    <g transform="translate(160 0) scale(-1 1)">
      <path d="M80 58 C56 57 43 67 40 82 C38 93 48 100 57 94 C64 89 60 79 53 82 C49 83 49 89 53 90" stroke-width="1.1"></path>
    </g>
    
    <path d="M44 80 Q80 70 116 80" stroke-width="1"></path>
    <path d="M58 77 q4 7 8 0 M76 75 q4 7 8 0 M94 77 q4 7 8 0" stroke-width="0.6" opacity=".75"></path>
    
    <path d="M80 76 C75 68 77 60 80 55 C83 60 85 68 80 76 Z" stroke-width="0.9"></path>
    <path d="M80 74 C72 70 68 64 68 58 M80 74 C88 70 92 64 92 58" stroke-width="0.7" opacity=".8"></path>

    
    <path d="M50 104 H110 M53 109 H107" stroke-width="0.9"></path>
    <circle cx="80" cy="99" r="2" fill="#c2912f" stroke="none"></circle>

    
    <rect x="56" y="113" width="48" height="386" fill="#c2912f" fill-opacity="0.045" stroke="none"></rect>
    <path d="M56 113 V499 M104 113 V499" stroke-width="1.3"></path>
    <path d="M52 113 H108 M55 118 H105" stroke-width="0.8" opacity=".85"></path>
    
    <g stroke-width="0.7" opacity=".8">
      <path d="M64 126 V486"></path><path d="M72 126 V486"></path><path d="M80 126 V486"></path><path d="M88 126 V486"></path><path d="M96 126 V486"></path>
    </g>
    <path d="M60 126 q20 -7 40 0 M60 486 q20 7 40 0" stroke-width="0.6" opacity=".6"></path>

    
    <path d="M52 499 H108 M55 494 H105" stroke-width="0.8" opacity=".85"></path>
    
    <rect x="52" y="503" width="56" height="13" rx="6.5" fill="#c2912f" fill-opacity="0.05" stroke-width="1"></rect>
    
    <path d="M50 519 H110 M48 526 H112" stroke-width="0.8" opacity=".8"></path>
    
    <rect x="44" y="528" width="72" height="15" rx="7.5" fill="#c2912f" fill-opacity="0.05" stroke-width="1.1"></rect>
    
    <rect x="28" y="546" width="104" height="34" fill="#c2912f" fill-opacity="0.04" stroke-width="1.3"></rect>
    <path d="M32 552 H128" stroke-width="0.7" opacity=".7"></path>
  </g>
</svg>