<?xml version="1.0"?>
<svg xmlns="http://www.w3.org/2000/svg" viewBox="0 0 938 1416" width="938" height="1416" preserveAspectRatio="none">
<rect x="46" y="98" width="846" height="1224" rx="3" fill="none" stroke="#c2912f" stroke-width="1.5"></rect>
<g fill="none" stroke="#c2912f" stroke-width="0.9">
  <line x1="84" y1="106" x2="380" y2="106"></line>
  <line x1="558" y1="106" x2="854" y2="106"></line>
  <line x1="884" y1="136" x2="884" y2="1284"></line>
  <line x1="854" y1="1314" x2="84" y2="1314"></line>
  <line x1="54" y1="1284" x2="54" y2="136"></line>
</g>
<g transform="translate(54 106)"><g>
  <path d="M30 0 C16 0 6 6 2 16 C0 22 0 26 0 30" fill="none" stroke="#c2912f" stroke-width="0.9"></path>
  <path d="M20 20 C33 20 37 12 32 7 C29 4 24 7 27 11" fill="none" stroke="#c2912f" stroke-width="0.8"></path>
  <g transform="scale(0.92)" fill="none" stroke="#c2912f" stroke-width="0.9" stroke-linecap="round" stroke-linejoin="round">
  <path d="M26 40 C72 30 122 40 170 80"></path>
  <path d="M40 52 C44 92 60 120 84 138 C100 150 113 143 111 129 C109 119 97 119 99 131"></path>
  <path d="M92 44 C88 28 99 20 111 24 C119 27 117 40 107 38" stroke-width="0.8"></path>
  <path d="M150 60 C152 46 162 42 171 49" stroke-width="0.75"></path>
  <path d="M120 38 V29 M150 49 V41 M170 80 C176 76 182 78 182 84" stroke-width="0.7"></path>
  <g fill="#c2912f" stroke="none"><circle cx="120" cy="33" r="3"></circle><circle cx="150" cy="44" r="2.6"></circle><circle cx="171" cy="49" r="2.2"></circle><circle cx="60" cy="150" r="2.4"></circle></g>
  <g stroke="none"><g transform="translate(106 52)"><g transform="rotate(32) scale(1)">
  <path d="M0 0 C5 -7 13 -8 19 -2 C13 5 5 4 0 0 Z" fill="#c96b81" stroke="#a84d63" stroke-width="0.7"></path>
  <path d="M2 -1 C7 -2 13 -3 17 -2" fill="none" stroke="#a84d63" stroke-width="0.5" opacity=".6"></path></g></g><g transform="translate(150 88)"><g transform="rotate(58) scale(1.06)">
  <path d="M0 0 C5 -7 13 -8 19 -2 C13 5 5 4 0 0 Z" fill="#c96b81" stroke="#a84d63" stroke-width="0.7"></path>
  <path d="M2 -1 C7 -2 13 -3 17 -2" fill="none" stroke="#a84d63" stroke-width="0.5" opacity=".6"></path></g></g><g transform="translate(70 98)"><g transform="rotate(122) scale(0.9)">
  <path d="M0 0 C5 -7 13 -8 19 -2 C13 5 5 4 0 0 Z" fill="#c96b81" stroke="#a84d63" stroke-width="0.7"></path>
  <path d="M2 -1 C7 -2 13 -3 17 -2" fill="none" stroke="#a84d63" stroke-width="0.5" opacity=".6"></path></g></g></g>
</g>
</g></g>
<g transform="translate(884 106) scale(-1,1)"><g>
  <path d="M30 0 C16 0 6 6 2 16 C0 22 0 26 0 30" fill="none" stroke="#c2912f" stroke-width="0.9"></path>
  <path d="M20 20 C33 20 37 12 32 7 C29 4 24 7 27 11" fill="none" stroke="#c2912f" stroke-width="0.8"></path>
  <g transform="scale(0.92)" fill="none" stroke="#c2912f" stroke-width="0.9" stroke-linecap="round" stroke-linejoin="round">
  <path d="M26 40 C72 30 122 40 170 80"></path>
  <path d="M40 52 C44 92 60 120 84 138 C100 150 113 143 111 129 C109 119 97 119 99 131"></path>
  <path d="M92 44 C88 28 99 20 111 24 C119 27 117 40 107 38" stroke-width="0.8"></path>
  <path d="M150 60 C152 46 162 42 171 49" stroke-width="0.75"></path>
  <path d="M120 38 V29 M150 49 V41 M170 80 C176 76 182 78 182 84" stroke-width="0.7"></path>
  <g fill="#c2912f" stroke="none"><circle cx="120" cy="33" r="3"></circle><circle cx="150" cy="44" r="2.6"></circle><circle cx="171" cy="49" r="2.2"></circle><circle cx="60" cy="150" r="2.4"></circle></g>
  <g stroke="none"><g transform="translate(106 52)"><g transform="rotate(32) scale(1)">
  <path d="M0 0 C5 -7 13 -8 19 -2 C13 5 5 4 0 0 Z" fill="#c96b81" stroke="#a84d63" stroke-width="0.7"></path>
  <path d="M2 -1 C7 -2 13 -3 17 -2" fill="none" stroke="#a84d63" stroke-width="0.5" opacity=".6"></path></g></g><g transform="translate(150 88)"><g transform="rotate(58) scale(1.06)">
  <path d="M0 0 C5 -7 13 -8 19 -2 C13 5 5 4 0 0 Z" fill="#c96b81" stroke="#a84d63" stroke-width="0.7"></path>
  <path d="M2 -1 C7 -2 13 -3 17 -2" fill="none" stroke="#a84d63" stroke-width="0.5" opacity=".6"></path></g></g><g transform="translate(70 98)"><g transform="rotate(122) scale(0.9)">
  <path d="M0 0 C5 -7 13 -8 19 -2 C13 5 5 4 0 0 Z" fill="#c96b81" stroke="#a84d63" stroke-width="0.7"></path>
  <path d="M2 -1 C7 -2 13 -3 17 -2" fill="none" stroke="#a84d63" stroke-width="0.5" opacity=".6"></path></g></g></g>
</g>
</g></g>
<g transform="translate(54 1314) scale(1,-1)"><g>
  <path d="M30 0 C16 0 6 6 2 16 C0 22 0 26 0 30" fill="none" stroke="#c2912f" stroke-width="0.9"></path>
  <path d="M20 20 C33 20 37 12 32 7 C29 4 24 7 27 11" fill="none" stroke="#c2912f" stroke-width="0.8"></path>
  <g transform="scale(1.14)" fill="none" stroke="#c2912f" stroke-width="0.9" stroke-linecap="round" stroke-linejoin="round">
  <path d="M26 40 C72 30 122 40 170 80"></path>
  <path d="M40 52 C44 92 60 120 84 138 C100 150 113 143 111 129 C109 119 97 119 99 131"></path>
  <path d="M92 44 C88 28 99 20 111 24 C119 27 117 40 107 38" stroke-width="0.8"></path>
  <path d="M150 60 C152 46 162 42 171 49" stroke-width="0.75"></path>
  <path d="M120 38 V29 M150 49 V41 M170 80 C176 76 182 78 182 84" stroke-width="0.7"></path>
  <g fill="#c2912f" stroke="none"><circle cx="120" cy="33" r="3"></circle><circle cx="150" cy="44" r="2.6"></circle><circle cx="171" cy="49" r="2.2"></circle><circle cx="60" cy="150" r="2.4"></circle></g>
  <g stroke="none"><g transform="translate(106 52)"><g transform="rotate(32) scale(1)">
  <path d="M0 0 C5 -7 13 -8 19 -2 C13 5 5 4 0 0 Z" fill="#c96b81" stroke="#a84d63" stroke-width="0.7"></path>
  <path d="M2 -1 C7 -2 13 -3 17 -2" fill="none" stroke="#a84d63" stroke-width="0.5" opacity=".6"></path></g></g><g transform="translate(150 88)"><g transform="rotate(58) scale(1.06)">
  <path d="M0 0 C5 -7 13 -8 19 -2 C13 5 5 4 0 0 Z" fill="#c96b81" stroke="#a84d63" stroke-width="0.7"></path>
  <path d="M2 -1 C7 -2 13 -3 17 -2" fill="none" stroke="#a84d63" stroke-width="0.5" opacity=".6"></path></g></g><g transform="translate(70 98)"><g transform="rotate(122) scale(0.9)">
  <path d="M0 0 C5 -7 13 -8 19 -2 C13 5 5 4 0 0 Z" fill="#c96b81" stroke="#a84d63" stroke-width="0.7"></path>
  <path d="M2 -1 C7 -2 13 -3 17 -2" fill="none" stroke="#a84d63" stroke-width="0.5" opacity=".6"></path></g></g></g>
</g>
</g></g>
<g transform="translate(884 1314) scale(-1,-1)"><g>
  <path d="M30 0 C16 0 6 6 2 16 C0 22 0 26 0 30" fill="none" stroke="#c2912f" stroke-width="0.9"></path>
  <path d="M20 20 C33 20 37 12 32 7 C29 4 24 7 27 11" fill="none" stroke="#c2912f" stroke-width="0.8"></path>
  <g transform="scale(1.14)" fill="none" stroke="#c2912f" stroke-width="0.9" stroke-linecap="round" stroke-linejoin="round">
  <path d="M26 40 C72 30 122 40 170 80"></path>
  <path d="M40 52 C44 92 60 120 84 138 C100 150 113 143 111 129 C109 119 97 119 99 131"></path>
  <path d="M92 44 C88 28 99 20 111 24 C119 27 117 40 107 38" stroke-width="0.8"></path>
  <path d="M150 60 C152 46 162 42 171 49" stroke-width="0.75"></path>
  <path d="M120 38 V29 M150 49 V41 M170 80 C176 76 182 78 182 84" stroke-width="0.7"></path>
  <g fill="#c2912f" stroke="none"><circle cx="120" cy="33" r="3"></circle><circle cx="150" cy="44" r="2.6"></circle><circle cx="171" cy="49" r="2.2"></circle><circle cx="60" cy="150" r="2.4"></circle></g>
  <g stroke="none"><g transform="translate(106 52)"><g transform="rotate(32) scale(1)">
  <path d="M0 0 C5 -7 13 -8 19 -2 C13 5 5 4 0 0 Z" fill="#c96b81" stroke="#a84d63" stroke-width="0.7"></path>
  <path d="M2 -1 C7 -2 13 -3 17 -2" fill="none" stroke="#a84d63" stroke-width="0.5" opacity=".6"></path></g></g><g transform="translate(150 88)"><g transform="rotate(58) scale(1.06)">
  <path d="M0 0 C5 -7 13 -8 19 -2 C13 5 5 4 0 0 Z" fill="#c96b81" stroke="#a84d63" stroke-width="0.7"></path>
  <path d="M2 -1 C7 -2 13 -3 17 -2" fill="none" stroke="#a84d63" stroke-width="0.5" opacity=".6"></path></g></g><g transform="translate(70 98)"><g transform="rotate(122) scale(0.9)">
  <path d="M0 0 C5 -7 13 -8 19 -2 C13 5 5 4 0 0 Z" fill="#c96b81" stroke="#a84d63" stroke-width="0.7"></path>
  <path d="M2 -1 C7 -2 13 -3 17 -2" fill="none" stroke="#a84d63" stroke-width="0.5" opacity=".6"></path></g></g></g>
</g>
</g></g>
<ellipse cx="469" cy="150" rx="86" ry="46" fill="none" stroke="#c2912f" stroke-width="1.2"></ellipse>
<ellipse cx="469" cy="150" rx="78" ry="39" fill="none" stroke="#c2912f" stroke-width="0.5" opacity=".55"></ellipse>
<g transform="translate(469 144)"><g transform="scale(0.92)" fill="none" stroke="#8d2150" stroke-linecap="round" stroke-linejoin="round">
  <path d="M0 -9 C5.4 -9 9.2 -5.2 9 0.4 C8.8 5.6 4.6 9.2 -0.6 9 C-5.8 8.8 -9.2 4.4 -9 -0.8 C-8.8 -5.6 -5 -9 0 -9 Z" stroke-width="1"></path>
  <path d="M4.6 -2.4 C4.6 -6 -0.8 -7 -3.8 -4.4 C-6.6 -2 -5 3 -1 3.4 C1.8 3.6 3 0.6 1 -1 C-0.2 -2 -2 -1 -2.2 0.8" stroke-width="1"></path>
  <path d="M-3.8 -4.4 C-6.8 -5.2 -8 -2 -7 1.4 M-1 3.4 C-1.2 6.6 2.2 8 5 5.8 M4.6 -2.4 C7.8 -3.2 8.8 0 7.6 3.2" stroke-width="0.75" opacity=".75"></path>
</g><path d="M0 8 C-3 16 1 22 0 30" fill="none" stroke="#8d2150" stroke-width="0.9"></path><g transform="translate(3 20)"><g transform="rotate(40) scale(0.5)">
  <path d="M0 0 C5 -7 13 -8 19 -2 C13 5 5 4 0 0 Z" fill="#c96b81" stroke="#a84d63" stroke-width="0.7"></path>
  <path d="M2 -1 C7 -2 13 -3 17 -2" fill="none" stroke="#a84d63" stroke-width="0.5" opacity=".6"></path></g></g></g>
<g stroke="#c2912f" stroke-width="0.9" fill="#c2912f">
  <line x1="320" y1="44" x2="436" y2="44"></line><line x1="502" y1="44" x2="618" y2="44"></line>
  <circle cx="320" cy="44" r="1.6"></circle><circle cx="618" cy="44" r="1.6"></circle></g><g>
  <path d="M469 34 L476 44 L469 54 L462 44 Z" fill="#be5573" stroke="#c2912f" stroke-width="1.2"></path>
  <path d="M469 38.5 L472.85 44 L469 49.5 L465.15 44 Z" fill="#e0a0b4" fill-opacity=".5" stroke="none"></path>
  <path d="M469 34 L469 54 M462 44 L476 44" stroke="#c2912f" stroke-width="0.45" opacity=".5"></path>
</g>
<g transform="translate(46 710)">
  <g>
  <path d="M0 -20 L12 0 L0 20 L-12 0 Z" fill="#be5573" stroke="#c2912f" stroke-width="1.2"></path>
  <path d="M0 -11 L6.6000000000000005 0 L0 11 L-6.6000000000000005 0 Z" fill="#e0a0b4" fill-opacity=".5" stroke="none"></path>
  <path d="M0 -20 L0 20 M-12 0 L12 0" stroke="#c2912f" stroke-width="0.45" opacity=".5"></path>
</g>
  <g fill="none" stroke="#c2912f" stroke-width="0.9" stroke-linecap="round">
    <path d="M0 -24 C-5 -36 -2 -48 0 -56 C2 -48 5 -36 0 -24"></path>
    <path d="M0 -32 C-7 -36 -9 -42 -6 -47 M0 -32 C7 -36 9 -42 6 -47"></path>
    <path d="M0 24 C-5 36 -2 48 0 56 C2 48 5 36 0 24"></path>
    <path d="M0 32 C-7 36 -9 42 -6 47 M0 32 C7 36 9 42 6 47"></path></g>
  <circle cx="0" cy="-60" r="2.2" fill="#c2912f"></circle><circle cx="0" cy="60" r="2.2" fill="#c2912f"></circle></g>
<g transform="translate(892 710)">
  <g>
  <path d="M0 -20 L12 0 L0 20 L-12 0 Z" fill="#be5573" stroke="#c2912f" stroke-width="1.2"></path>
  <path d="M0 -11 L6.6000000000000005 0 L0 11 L-6.6000000000000005 0 Z" fill="#e0a0b4" fill-opacity=".5" stroke="none"></path>
  <path d="M0 -20 L0 20 M-12 0 L12 0" stroke="#c2912f" stroke-width="0.45" opacity=".5"></path>
</g>
  <g fill="none" stroke="#c2912f" stroke-width="0.9" stroke-linecap="round">
    <path d="M0 -24 C-5 -36 -2 -48 0 -56 C2 -48 5 -36 0 -24"></path>
    <path d="M0 -32 C-7 -36 -9 -42 -6 -47 M0 -32 C7 -36 9 -42 6 -47"></path>
    <path d="M0 24 C-5 36 -2 48 0 56 C2 48 5 36 0 24"></path>
    <path d="M0 32 C-7 36 -9 42 -6 47 M0 32 C7 36 9 42 6 47"></path></g>
  <circle cx="0" cy="-60" r="2.2" fill="#c2912f"></circle><circle cx="0" cy="60" r="2.2" fill="#c2912f"></circle></g>
<g transform="translate(469 1322)">
  <g>
  <path d="M0 -15 L11 0 L0 15 L-11 0 Z" fill="#be5573" stroke="#c2912f" stroke-width="1.2"></path>
  <path d="M0 -8.25 L6.050000000000001 0 L0 8.25 L-6.050000000000001 0 Z" fill="#e0a0b4" fill-opacity=".5" stroke="none"></path>
  <path d="M0 -15 L0 15 M-11 0 L11 0" stroke="#c2912f" stroke-width="0.45" opacity=".5"></path>
</g>
  <g fill="none" stroke="#c2912f" stroke-width="0.9" stroke-linecap="round">
    <path d="M16 0 C40 -3 56 -3 78 0 M16 0 C40 3 56 3 78 0"></path>
    <path d="M-16 0 C-40 -3 -56 -3 -78 0 M-16 0 C-40 3 -56 3 -78 0"></path>
    <path d="M78 0 C86 -4 92 -2 92 4"></path><path d="M-78 0 C-86 -4 -92 -2 -92 4"></path></g>
  <circle cx="50" cy="0" r="2" fill="#c2912f"></circle><circle cx="-50" cy="0" r="2" fill="#c2912f"></circle></g>
</svg>